<svg id="魷魚身體" xmlns="http://www.w3.org/2000/svg" width="128.344" height="257.125" viewBox="0 0 128.344 257.125">
  <defs>
    <style>
      .cls-1 {
        fill: #ff8282;
      }

      .cls-1, .cls-2, .cls-4 {
        fill-rule: evenodd;
      }

      .cls-2 {
        fill: #f1f1f1;
      }

      .cls-3 {
        fill: #5280a4;
      }

      .cls-4 {
        fill: #4dc0c4;
      }
    </style>
  </defs>
  <path id="矩形_2_拷貝_26" data-name="矩形 2 拷貝 26" class="cls-1" d="M156.335,47.114H260.069a12,12,0,0,1,12,12V243.6a12,12,0,0,1-12,12H156.335a12,12,0,0,1-12-12V59.114A12,12,0,0,1,156.335,47.114Z" transform="translate(-144 -47.125)"/>
  <path id="矩形_3_拷貝_25" data-name="矩形 3 拷貝 25" class="cls-1" d="M173.862,206.936H180.5a5.423,5.423,0,0,1,5.423,5.424v86.474a5.423,5.423,0,0,1-5.423,5.424h-6.637a5.423,5.423,0,0,1-5.423-5.424V212.36A5.423,5.423,0,0,1,173.862,206.936Z" transform="translate(-144 -47.125)"/>
  <path id="矩形_3_拷貝_25-2" data-name="矩形 3 拷貝 25" class="cls-1" d="M206.608,206.936h6.637a5.423,5.423,0,0,1,5.423,5.424v86.474a5.423,5.423,0,0,1-5.423,5.424h-6.637a5.423,5.423,0,0,1-5.423-5.424V212.36A5.423,5.423,0,0,1,206.608,206.936Z" transform="translate(-144 -47.125)"/>
  <path id="矩形_3_拷貝_25-3" data-name="矩形 3 拷貝 25" class="cls-1" d="M239.315,206.936h6.636a5.423,5.423,0,0,1,5.424,5.424v86.474a5.423,5.423,0,0,1-5.424,5.424h-6.636a5.424,5.424,0,0,1-5.424-5.424V212.36A5.424,5.424,0,0,1,239.315,206.936Z" transform="translate(-144 -47.125)"/>
  <path id="矩形_44_拷貝_2" data-name="矩形 44 拷貝 2" class="cls-2" d="M144.007,181.734h45.066c6.278,0,12.559,7.471,19.1,7.471,5.407,0,11.076-7.471,16.324-7.471h47.844V241.5a14.932,14.932,0,0,1-14.923,14.941h-98.49A14.931,14.931,0,0,1,144.007,241.5V181.734Z" transform="translate(-144 -47.125)"/>
  <circle id="橢圓_15_拷貝_3" data-name="橢圓 15 拷貝 3" class="cls-3" cx="66.656" cy="155.516" r="4.469"/>
  <circle id="橢圓_15_拷貝_3-2" data-name="橢圓 15 拷貝 3" class="cls-3" cx="66.656" cy="170.469" r="4.469"/>
  <path id="矩形_45_拷貝_4" data-name="矩形 45 拷貝 4" class="cls-4" d="M234.565,198.172H259.9v17.553a7.868,7.868,0,0,1-7.867,7.868h-9.6a7.868,7.868,0,0,1-7.868-7.868V198.172Z" transform="translate(-144 -47.125)"/>
  <circle id="橢圓_15_拷貝_3-3" data-name="橢圓 15 拷貝 3" class="cls-3" cx="66.656" cy="185.422" r="4.469"/>
</svg>
