<svg id="defaultSquid" xmlns="http://www.w3.org/2000/svg" width="285.969" height="479" viewBox="0 0 285.969 479">
  <metadata><?xpacket begin="﻿" id="W5M0MpCehiHzreSzNTczkc9d"?>
<x:xmpmeta xmlns:x="adobe:ns:meta/" x:xmptk="Adobe XMP Core 5.6-c138 79.159824, 2016/09/14-01:09:01        ">
   <rdf:RDF xmlns:rdf="http://www.w3.org/1999/02/22-rdf-syntax-ns#">
      <rdf:Description rdf:about=""/>
   </rdf:RDF>
</x:xmpmeta>
                                                                                                    
                                                                                                    
                                                                                                    
                                                                                                    
                                                                                                    
                                                                                                    
                                                                                                    
                                                                                                    
                                                                                                    
                                                                                                    
                                                                                                    
                                                                                                    
                                                                                                    
                                                                                                    
                                                                                                    
                                                                                                    
                                                                                                    
                                                                                                    
                                                                                                    
                                                                                                    
                           
<?xpacket end="w"?></metadata>
<defs>
    <style>
      .cls-1, .cls-2 {
        fill: #ff8d8d;
      }

      .cls-2, .cls-4, .cls-7 {
        fill-rule: evenodd;
      }

      .cls-3, .cls-7 {
        fill: #4b4b4b;
      }

      .cls-4 {
        fill: #f3f3f3;
      }

      .cls-5 {
        fill: #5d8bae;
      }

      .cls-6 {
        fill: #58c7cb;
      }
    </style>
  </defs>
  <rect id="矩形_2_拷貝_26" data-name="矩形 2 拷貝 26" class="cls-1" x="44.75" y="80.875" width="195.844" height="322.75" rx="20" ry="20"/>
  <path id="多邊形_1_拷貝_26" data-name="多邊形 1 拷貝 26" class="cls-2" d="M250.231,116.172q107.24,136.382-107.24,136.379T35.752,116.172Q142.992-20.206,250.231,116.172Z" transform="translate(0 -48)"/>
  <rect id="矩形_3_拷貝_27" data-name="矩形 3 拷貝 27" class="cls-1" x="79.438" y="328.313" width="26.844" height="150.687" rx="5.423" ry="5.423"/>
  <rect id="矩形_3_拷貝_27-2" data-name="矩形 3 拷貝 27" class="cls-1" x="129.594" y="328.313" width="26.781" height="150.687" rx="5.423" ry="5.423"/>
  <rect id="矩形_3_拷貝_27-3" data-name="矩形 3 拷貝 27" class="cls-1" x="179.719" y="328.313" width="26.812" height="150.687" rx="5.423" ry="5.423"/>
  <circle id="橢圓_2_拷貝_22" data-name="橢圓 2 拷貝 22" class="cls-3" cx="95.344" cy="226.781" r="15.906"/>
  <ellipse id="橢圓_2_拷貝_22-2" data-name="橢圓 2 拷貝 22" class="cls-3" cx="180.031" cy="226.781" rx="15.938" ry="16.156"/>
  <path id="矩形_44_拷貝_2" data-name="矩形 44 拷貝 2" class="cls-4" d="M45.191,337.105h68.626c9.56,0,19.125,11.738,29.088,11.738,8.233,0,16.866-11.738,24.857-11.738h72.857V431c0,12.964-10.174,23.474-22.725,23.474H67.915c-12.55,0-22.724-10.51-22.724-23.474V337.105Z" transform="translate(0 -48)"/>
  <circle id="橢圓_15_拷貝_3" data-name="橢圓 15 拷貝 3" class="cls-5" cx="144.141" cy="321.641" r="6.859"/>
  <circle id="橢圓_15_拷貝_3-2" data-name="橢圓 15 拷貝 3" class="cls-5" cx="144.141" cy="344.781" r="6.859"/>
  <path id="矩形_45_拷貝_4" data-name="矩形 45 拷貝 4" class="cls-6" d="M180.813,314.688h38.812a0,0,0,0,1,0,0V346.2a7.867,7.867,0,0,1-7.867,7.867H188.68a7.867,7.867,0,0,1-7.867-7.867V314.688a0,0,0,0,1,0,0Z"/>
  <ellipse id="橢圓_15_拷貝_3-3" data-name="橢圓 15 拷貝 3" class="cls-5" cx="144.141" cy="367.969" rx="6.859" ry="6.938"/>
  <path id="形狀_782_拷貝_3" data-name="形狀 782 拷貝 3" class="cls-7" d="M102.732,307.74v-4.19s13.289,6.983,40.055,6.983c25.979,0,34.916-6.983,34.916-6.983v4.19s-8.455,6.982-34.179,6.982C116.522,314.722,102.732,307.74,102.732,307.74Z" transform="translate(0 -48)"/>
</svg>
