<svg id="emptySquid_new" xmlns="http://www.w3.org/2000/svg" width="286" height="511" viewBox="0 0 286 511">
  <metadata><?xpacket begin="﻿" id="W5M0MpCehiHzreSzNTczkc9d"?>
<x:xmpmeta xmlns:x="adobe:ns:meta/" x:xmptk="Adobe XMP Core 5.6-c138 79.159824, 2016/09/14-01:09:01        ">
   <rdf:RDF xmlns:rdf="http://www.w3.org/1999/02/22-rdf-syntax-ns#">
      <rdf:Description rdf:about=""/>
   </rdf:RDF>
</x:xmpmeta>
                                                                                                    
                                                                                                    
                                                                                                    
                                                                                                    
                                                                                                    
                                                                                                    
                                                                                                    
                                                                                                    
                                                                                                    
                                                                                                    
                                                                                                    
                                                                                                    
                                                                                                    
                                                                                                    
                                                                                                    
                                                                                                    
                                                                                                    
                                                                                                    
                                                                                                    
                                                                                                    
                           
<?xpacket end="w"?></metadata>
<defs>
    <style>
      .cls-1 {
        fill: #ff8d8d;
        fill-rule: evenodd;
      }
    </style>
  </defs>
  <path id="形狀_1" data-name="形狀 1" class="cls-1" d="M252.726,489.022a6.385,6.385,0,0,1-6.671,6.056l-6.089-.133c-22.647-.5-39.82-14.522-48.353-39.5a118,118,0,0,1-5.853-34.232V335.552a6.368,6.368,0,0,1,6.524-6.2h12.179a6.368,6.368,0,0,1,6.524,6.2v85.664c0,0.469.526,49.125,29.56,49.759l6.088,0.133a6.351,6.351,0,0,1,6.372,6.342Z"/>
  <path id="形狀_1_拷貝" data-name="形狀 1 拷貝" class="cls-1" d="M196.54,489.938a6.386,6.386,0,0,1-6.672,6.056l-6.088-.133c-22.647-.5-39.82-14.522-48.353-39.5a118,118,0,0,1-5.853-34.232V336.468a6.368,6.368,0,0,1,6.524-6.2h12.179a6.368,6.368,0,0,1,6.524,6.2v85.663c0,0.47.526,49.126,29.56,49.76l6.088,0.133a6.351,6.351,0,0,1,6.372,6.341Z"/>
  <path id="形狀_1_拷貝_2" data-name="形狀 1 拷貝 2" class="cls-1" d="M139.433,489.022a6.386,6.386,0,0,1-6.672,6.056l-6.088-.133c-22.647-.5-39.82-14.522-48.354-39.5a117.993,117.993,0,0,1-5.852-34.232V335.552a6.368,6.368,0,0,1,6.523-6.2H91.17a6.368,6.368,0,0,1,6.523,6.2v85.664c0,0.469.526,49.125,29.56,49.759l6.089,0.133a6.35,6.35,0,0,1,6.371,6.342Z"/>
  <path id="矩形_2_拷貝_26" data-name="矩形 2 拷貝 26" class="cls-1" d="M219.8,113H64.007a19.933,19.933,0,0,0-19.993,19.871V413.812a19.933,19.933,0,0,0,19.993,19.871H219.8a19.932,19.932,0,0,0,19.993-19.871V132.874A19.932,19.932,0,0,0,219.8,113Z"/>
</svg>
