<svg id="emptySquid_new" xmlns="http://www.w3.org/2000/svg" viewBox="0 0 286 511">
    <title>emptySquid_moving</title>
    <path d="M253.4,491.7a6.5,6.5,0,0,1-6.7,6.2h-6.1c-22.8-.5-40-14.9-48.6-40.4a122.7,122.7,0,0,1-5.9-35V334.7a6.5,6.5,0,0,1,6.6-6.3h12.2a6.5,6.5,0,0,1,6.6,6.3v87.7c0,.5.5,50.3,29.7,50.9h6.1a6.4,6.4,0,0,1,6.4,6.5Z" style="fill:#ff8d8d"/>
    <path d="M196.9,491.7a6.5,6.5,0,0,1-6.7,6.2h-6.1c-22.8-.5-40-14.9-48.6-40.4a122.7,122.7,0,0,1-5.9-35V334.7a6.5,6.5,0,0,1,6.6-6.3h12.2a6.5,6.5,0,0,1,6.6,6.3v87.7c0,.5.5,50.3,29.7,50.9h6.1a6.4,6.4,0,0,1,6.4,6.5Z" style="fill:#ff8d8d"/>
    <path d="M140.5,491.7a6.5,6.5,0,0,1-6.7,6.2h-6.1c-22.8-.5-40-14.9-48.6-40.4a122.7,122.7,0,0,1-5.9-35V334.7a6.5,6.5,0,0,1,6.6-6.3H91.9a6.5,6.5,0,0,1,6.6,6.3v87.7c0,.5.5,50.3,29.7,50.9h6.1a6.4,6.4,0,0,1,6.4,6.5Z" style="fill:#ff8d8d"/>
    <g id="矩形_2_拷貝_26" data-name="矩形 2 拷貝 26">
        <rect x="44.8" y="112.9" width="195.8" height="322.75" rx="20" ry="20" style="fill:#ff8d8d"/>
    </g>
    <g id="矩形_44_拷貝_2" data-name="矩形 44 拷貝 2">
        <path d="M167.8,321.1c-8,0-16.6,11.7-24.9,11.7-10,0-19.5-11.7-29.1-11.7H45.2V415c0,13,10.2,23.5,22.7,23.5h150c12.6,0,22.7-10.5,22.7-23.5V321.1Z" style="fill:#f3f3f3;fill-rule:evenodd"/>
    </g>
    <g id="橢圓_15_拷貝_3" data-name="橢圓 15 拷貝 3">
        <ellipse cx="144.1" cy="353.6" rx="6.9" ry="7" style="fill:#5d8bae"/>
    </g>
    <g id="橢圓_15_拷貝_3-2" data-name="橢圓 15 拷貝 3">
        <ellipse cx="144.1" cy="376.8" rx="6.9" ry="7" style="fill:#5d8bae"/>
    </g>
    <g id="矩形_45_拷貝_4" data-name="矩形 45 拷貝 4">
        <path d="M180.8,346.7v31.5a7.9,7.9,0,0,0,7.9,7.9h23.1a7.9,7.9,0,0,0,7.9-7.9V346.7Z" style="fill:#58c7cb;fill-rule:evenodd"/>
    </g>
    <g id="橢圓_15_拷貝_3-3" data-name="橢圓 15 拷貝 3">
        <ellipse cx="144.1" cy="400" rx="6.9" ry="6.9" style="fill:#5d8bae"/>
    </g>
</svg>