<svg id="emptySquid_moving" xmlns="http://www.w3.org/2000/svg" width="286" height="398" viewBox="0 0 286 398">
  <metadata><?xpacket begin="﻿" id="W5M0MpCehiHzreSzNTczkc9d"?>
<x:xmpmeta xmlns:x="adobe:ns:meta/" x:xmptk="Adobe XMP Core 5.6-c138 79.159824, 2016/09/14-01:09:01        ">
   <rdf:RDF xmlns:rdf="http://www.w3.org/1999/02/22-rdf-syntax-ns#">
      <rdf:Description rdf:about=""/>
   </rdf:RDF>
</x:xmpmeta>
                                                                                                    
                                                                                                    
                                                                                                    
                                                                                                    
                                                                                                    
                                                                                                    
                                                                                                    
                                                                                                    
                                                                                                    
                                                                                                    
                                                                                                    
                                                                                                    
                                                                                                    
                                                                                                    
                                                                                                    
                                                                                                    
                                                                                                    
                                                                                                    
                                                                                                    
                                                                                                    
                           
<?xpacket end="w"?></metadata>
<defs>
    <style>
      .cls-1, .cls-2 {
        fill: #ff8d8d;
      }

      .cls-2, .cls-3 {
        fill-rule: evenodd;
      }

      .cls-3 {
        fill: #f3f3f3;
      }

      .cls-4 {
        fill: #5d8bae;
      }

      .cls-5 {
        fill: #58c7cb;
      }
    </style>
  </defs>
  <rect id="矩形_2_拷貝_26" data-name="矩形 2 拷貝 26" class="cls-1" x="45.063" y="0.781" width="195.844" height="322.75" rx="20" ry="20"/>
  <path id="矩形_3_拷貝_27" data-name="矩形 3 拷貝 27" class="cls-2" d="M191.463,361.31h14.354a5.423,5.423,0,0,1,5.423,5.423V471.251C211.24,491.5,218,497,218,497c1.2,3.855.964,4.421-1,7l-14,5c-2.48,1.2-8-1-8-4,0,0-8.96-13.5-8.96-33.749V366.733A5.423,5.423,0,0,1,191.463,361.31Z" transform="translate(0.313 -112.094)"/>
  <path id="矩形_3_拷貝_29" data-name="矩形 3 拷貝 29" class="cls-2" d="M135.463,361.31h14.354a5.423,5.423,0,0,1,5.423,5.423V471.251C155.24,491.5,162,497,162,497c1.2,3.855.964,4.421-1,7l-14,5c-2.48,1.2-8-1-8-4,0,0-8.96-13.5-8.96-33.749V366.733A5.423,5.423,0,0,1,135.463,361.31Z" transform="translate(0.313 -112.094)"/>
  <path id="矩形_3_拷貝_30" data-name="矩形 3 拷貝 30" class="cls-2" d="M78.463,361.31H92.817a5.423,5.423,0,0,1,5.423,5.423V471.251C98.24,491.5,105,497,105,497c1.2,3.855.964,4.421-1,7l-14,5c-2.48,1.2-8-1-8-4,0,0-8.96-13.5-8.96-33.749V366.733A5.423,5.423,0,0,1,78.463,361.31Z" transform="translate(0.313 -112.094)"/>
  <path id="矩形_44_拷貝_2" data-name="矩形 44 拷貝 2" class="cls-3" d="M45.191,321.105h68.626c9.56,0,19.125,11.737,29.088,11.737,8.233,0,16.866-11.737,24.857-11.737h72.857V415c0,12.964-10.174,23.474-22.725,23.474H67.915c-12.55,0-22.724-10.51-22.724-23.474V321.105Z" transform="translate(0.313 -112.094)"/>
  <circle id="橢圓_15_拷貝_3" data-name="橢圓 15 拷貝 3" class="cls-4" cx="144.453" cy="241.547" r="6.859"/>
  <circle id="橢圓_15_拷貝_3-2" data-name="橢圓 15 拷貝 3" class="cls-4" cx="144.453" cy="264.688" r="6.859"/>
  <path id="矩形_45_拷貝_4" data-name="矩形 45 拷貝 4" class="cls-5" d="M181.126,234.594h38.812a0,0,0,0,1,0,0V266.1a7.867,7.867,0,0,1-7.867,7.867H188.993a7.867,7.867,0,0,1-7.867-7.867V234.594a0,0,0,0,1,0,0Z"/>
  <ellipse id="橢圓_15_拷貝_3-3" data-name="橢圓 15 拷貝 3" class="cls-4" cx="144.453" cy="287.875" rx="6.859" ry="6.938"/>
</svg>
