<svg id="face2" xmlns="http://www.w3.org/2000/svg" width="286" height="56" viewBox="0 0 286 56">
  <defs>
    <style>
      .cls-1, .cls-2 {
        fill: #4b4b4b;
      }

      .cls-1 {
        fill-rule: evenodd;
      }

      .cls-3 {
        fill: #fff;
      }
    </style>
  </defs>
  <path id="橢圓_776_拷貝_2" data-name="橢圓 776 拷貝 2" class="cls-1" d="M106.132,10.2c10.228-.813,18.7.8,18.929,3.6s-7.883,5.733-18.112,6.546-18.7-.8-18.93-3.6S95.9,11.011,106.132,10.2Z" transform="translate(-0.016)"/>
  <path id="矩形_782_拷貝_2" data-name="矩形 782 拷貝 2" class="cls-1" d="M115.319,0.1l9.959,2.413a1.273,1.273,0,1,1-.607,2.473l-9.959-2.413A1.273,1.273,0,1,1,115.319.1Z" transform="translate(-0.016)"/>
  <path id="矩形_782_拷貝_2-2" data-name="矩形 782 拷貝 2" class="cls-1" d="M170.921,0.024L160.706,2.514a1.314,1.314,0,1,0,.623,2.553l10.215-2.491A1.314,1.314,0,1,0,170.921.024Z" transform="translate(-0.016)"/>
  <rect id="矩形_780_拷貝" data-name="矩形 780 拷貝" class="cls-2" x="117.422" y="29.281" width="51.25" height="24.188" rx="9.5" ry="9.5"/>
  <ellipse id="橢圓_781_拷貝" data-name="橢圓 781 拷貝" class="cls-3" cx="143.047" cy="49" rx="21.781" ry="7"/>
  <path id="橢圓_776_拷貝_2-2" data-name="橢圓 776 拷貝 2" class="cls-1" d="M180.219,10.222c10.182,1.271,18.149,4.563,17.8,7.353s-8.893,4.021-19.074,2.75-18.149-4.563-17.8-7.352S170.038,8.951,180.219,10.222Z" transform="translate(-0.016)"/>
  <circle id="橢圓_778_拷貝_2" data-name="橢圓 778 拷貝 2" class="cls-3" cx="100.672" cy="14.469" r="3.844"/>
  <circle id="橢圓_778_拷貝_2-2" data-name="橢圓 778 拷貝 2" class="cls-3" cx="171.453" cy="14.25" r="3.844"/>
</svg>
