<svg id="face4" xmlns="http://www.w3.org/2000/svg" width="286" height="55.969" viewBox="0 0 286 55.969">
  <defs>
    <style>
      .cls-1, .cls-2 {
        fill: #4b4b4b;
      }

      .cls-2 {
        fill-rule: evenodd;
      }
    </style>
  </defs>
  <circle id="橢圓_799_拷貝_2" data-name="橢圓 799 拷貝 2" class="cls-1" cx="110.844" cy="11.719" r="9.906"/>
  <path id="矩形_800_拷貝_2" data-name="矩形 800 拷貝 2" class="cls-2" d="M75.474,3.346A61.609,61.609,0,0,1,93.789,0,58.98,58.98,0,0,1,111.76,3.346a2.51,2.51,0,0,1,0,5.02,57,57,0,0,0-17.7-3.346A63.709,63.709,0,0,0,75.474,8.366,2.51,2.51,0,0,1,75.474,3.346Z" transform="translate(6.5)"/>
  <circle id="橢圓_799_拷貝_2-2" data-name="橢圓 799 拷貝 2" class="cls-1" cx="196.594" cy="11.719" r="9.906"/>
  <path id="矩形_800_拷貝_2-2" data-name="矩形 800 拷貝 2" class="cls-2" d="M161.24,3.346A61.612,61.612,0,0,1,179.555,0a58.98,58.98,0,0,1,17.971,3.346,2.51,2.51,0,0,1,0,5.02,57,57,0,0,0-17.7-3.346A63.712,63.712,0,0,0,161.24,8.366,2.51,2.51,0,0,1,161.24,3.346Z" transform="translate(6.5)"/>
  <path id="矩形_803_拷貝" data-name="矩形 803 拷貝" class="cls-2" d="M116.325,49.185a95.044,95.044,0,0,0,29.422,1.2c15.077-1.977,31.1-9.139,31.1-9.139a2.509,2.509,0,0,1,.634,4.978s-15.778,7.13-30.728,9.09a98,98,0,0,1-29.795-1.155A2.51,2.51,0,0,1,116.325,49.185Z" transform="translate(6.5)"/>
</svg>
