<svg id="face6" xmlns="http://www.w3.org/2000/svg" width="286" height="56" viewBox="0 0 286 56">
  <defs>
    <style>
      .cls-1 {
        fill: #4b4b4b;
        fill-rule: evenodd;
      }
    </style>
  </defs>
  <path id="矩形_815_拷貝_5" data-name="矩形 815 拷貝 5" class="cls-1" d="M94.579,2.082l21.436-1.428a1.352,1.352,0,0,1,1.428,1.274,1.358,1.358,0,0,1-1.252,1.452L94.754,4.808A1.366,1.366,0,0,1,94.579,2.082Z" transform="translate(0 -0.328)"/>
  <path id="矩形_815_拷貝_5-2" data-name="矩形 815 拷貝 5" class="cls-1" d="M95.921,4.814l21.437-1.428a1.366,1.366,0,0,1,.175,2.726L96.1,7.54A1.366,1.366,0,0,1,95.921,4.814Z" transform="translate(0 -0.328)"/>
  <path id="矩形_815_拷貝_5-3" data-name="矩形 815 拷貝 5" class="cls-1" d="M93.236,6.18l21.437-1.428a1.366,1.366,0,0,1,.175,2.726L93.411,8.906A1.366,1.366,0,0,1,93.236,6.18Z" transform="translate(0 -0.328)"/>
  <path id="矩形_815_拷貝_5-4" data-name="矩形 815 拷貝 5" class="cls-1" d="M95.921,8.912l21.437-1.428a1.366,1.366,0,0,1,.175,2.726L96.1,11.638A1.366,1.366,0,0,1,95.921,8.912Z" transform="translate(0 -0.328)"/>
  <path id="矩形_815_拷貝_5-5" data-name="矩形 815 拷貝 5" class="cls-1" d="M191.413,2.431l-21.5-1.416a1.355,1.355,0,0,0-.176,2.7l21.5,1.416A1.355,1.355,0,0,0,191.413,2.431Z" transform="translate(0 -0.328)"/>
  <path id="矩形_815_拷貝_5-6" data-name="矩形 815 拷貝 5" class="cls-1" d="M190.066,4.142l-21.5-1.416a1.355,1.355,0,0,0-.176,2.7l21.5,1.417A1.355,1.355,0,0,0,190.066,4.142Z" transform="translate(0 -0.328)"/>
  <path id="矩形_815_拷貝_5-7" data-name="矩形 815 拷貝 5" class="cls-1" d="M192.76,5.5l-21.5-1.416a1.355,1.355,0,0,0-.176,2.7l21.5,1.417A1.355,1.355,0,0,0,192.76,5.5Z" transform="translate(0 -0.328)"/>
  <path id="矩形_815_拷貝_6" data-name="矩形 815 拷貝 6" class="cls-1" d="M192.76,8.5l-21.5-1.416a1.355,1.355,0,0,0-.176,2.7l21.5,1.417A1.355,1.355,0,0,0,192.76,8.5Z" transform="translate(0 -0.328)"/>
  <path id="矩形_815_拷貝_5-8" data-name="矩形 815 拷貝 5" class="cls-1" d="M190.066,7.207l-21.5-1.416a1.355,1.355,0,0,0-.176,2.7l21.5,1.416A1.355,1.355,0,0,0,190.066,7.207Z" transform="translate(0 -0.328)"/>
  <path id="矩形_823_拷貝" data-name="矩形 823 拷貝" class="cls-1" d="M143.257,38.244C169.358,38.244,175.2,56,175.2,56H113.441S118.3,38.244,143.257,38.244Z" transform="translate(0 -0.328)"/>
</svg>
