<svg id="face3" xmlns="http://www.w3.org/2000/svg" width="286" height="56" viewBox="0 0 286 56">
  <defs>
    <style>
      .cls-1 {
        fill: #4b4b4b;
        fill-rule: evenodd;
      }
    </style>
  </defs>
  <path id="橢圓_788_拷貝_2" data-name="橢圓 788 拷貝 2" class="cls-1" d="M109.66,0c4.253,0,7.7,6.529,7.7,14.583s-3.447,14.583-7.7,14.583-7.7-6.529-7.7-14.583S105.407,0,109.66,0Z" transform="translate(-7.531)"/>
  <path id="橢圓_788_拷貝_2-2" data-name="橢圓 788 拷貝 2" class="cls-1" d="M186.738,0c4.253,0,7.7,6.529,7.7,14.583s-3.447,14.583-7.7,14.583-7.7-6.529-7.7-14.583S182.485,0,186.738,0Z" transform="translate(-7.531)"/>
  <path id="橢圓_790_拷貝" data-name="橢圓 790 拷貝" class="cls-1" d="M149.747,46.027c11.474,0,16.958,9.973,16.958,9.973H131.248S135.918,46.027,149.747,46.027Z" transform="translate(-7.531)"/>
  <path id="形狀_791_拷貝_4" data-name="形狀 791 拷貝 4" class="cls-1" d="M91.684,36.8l1.131,0.67L86.149,47.581l-1.131-.67Z" transform="translate(-7.531)"/>
  <path id="形狀_791_拷貝_4-2" data-name="形狀 791 拷貝 4" class="cls-1" d="M98.559,36.8l1.131,0.67L93.023,47.581l-1.13-.67Z" transform="translate(-7.531)"/>
  <path id="形狀_791_拷貝_4-3" data-name="形狀 791 拷貝 4" class="cls-1" d="M103.892,36.8l1.131,0.67L98.356,47.581l-1.13-.67Z" transform="translate(-7.531)"/>
  <path id="形狀_791_拷貝_4-4" data-name="形狀 791 拷貝 4" class="cls-1" d="M202.68,36.8l1.13,0.67-6.666,10.108-1.131-.67Z" transform="translate(-7.531)"/>
  <path id="形狀_791_拷貝_4-5" data-name="形狀 791 拷貝 4" class="cls-1" d="M209.554,36.8l1.131,0.67-6.666,10.108-1.131-.67Z" transform="translate(-7.531)"/>
  <path id="形狀_791_拷貝_4-6" data-name="形狀 791 拷貝 4" class="cls-1" d="M214.888,36.8l1.13,0.67-6.666,10.108-1.131-.67Z" transform="translate(-7.531)"/>
</svg>
