<svg xmlns="http://www.w3.org/2000/svg" xmlns:xlink="http://www.w3.org/1999/xlink" width="286" height="63.031" viewBox="0 0 286 63.031">
  <defs>
    <style>
      .cls-1, .cls-3 {
        fill: #4b4b4b;
      }

      .cls-2 {
        fill: #f3f3f3;
      }

      .cls-3 {
        fill-rule: evenodd;
      }
    </style>
    <clipPath id="clip-path">
      <rect x="-2.594" y="3.516" width="286" height="56"/>
    </clipPath>
  </defs>
  <g clip-path="url(#clip-path)">
    <g id="face5">
      <ellipse id="橢圓_806_拷貝_3" data-name="橢圓 806 拷貝 3" class="cls-1" cx="112.25" cy="16.547" rx="13.844" ry="13.938"/>
      <ellipse id="橢圓_806_拷貝_3-2" data-name="橢圓 806 拷貝 3" class="cls-2" cx="112.828" cy="17.141" rx="8.422" ry="8.469"/>
      <ellipse id="橢圓_806_拷貝_3-3" data-name="橢圓 806 拷貝 3" class="cls-1" cx="173.562" cy="16.547" rx="13.844" ry="13.938"/>
      <circle id="橢圓_806_拷貝_3-4" data-name="橢圓 806 拷貝 3" class="cls-2" cx="174.172" cy="17.141" r="8.422"/>
      <path id="矩形_810_拷貝" data-name="矩形 810 拷貝" class="cls-3" d="M158.128,56H132.872a6.636,6.636,0,0,1-6.615-6.658c0-3.677,2.488-3.8,6.615-6.658,0,0,6.214-3.632,12.628-3.632,6.211,0,12.628,3.632,12.628,3.632,3.937,2.475,6.615,2.981,6.615,6.658A6.636,6.636,0,0,1,158.128,56Z" transform="translate(-2.594 3.516)"/>
      <path id="矩形_811_拷貝_2" data-name="矩形 811 拷貝 2" class="cls-3" d="M111.172-4.673a23.581,23.581,0,0,0,7.628.22,49.735,49.735,0,0,0,9.068-2.411A1.806,1.806,0,0,1,129.89-5.3a1.813,1.813,0,0,1-1.555,2.035,47.578,47.578,0,0,1-8.881,2.386,25.107,25.107,0,0,1-7.816-.2,1.806,1.806,0,0,1-2.022-1.566A1.814,1.814,0,0,1,111.172-4.673Z" transform="translate(-2.594 3.516)"/>
      <path id="矩形_811_拷貝_2-2" data-name="矩形 811 拷貝 2" class="cls-3" d="M188.614-4.878a24.517,24.517,0,0,1-7.685.214,51.385,51.385,0,0,1-9.135-2.352,1.81,1.81,0,0,0-2.038,1.528A1.781,1.781,0,0,0,171.324-3.5a49.148,49.148,0,0,0,8.947,2.328,26.1,26.1,0,0,0,7.873-.19,1.809,1.809,0,0,0,2.037-1.528A1.781,1.781,0,0,0,188.614-4.878Z" transform="translate(-2.594 3.516)"/>
    </g>
  </g>
</svg>
