<?xml version="1.0" standalone="no"?>
<!DOCTYPE svg PUBLIC "-//W3C//DTD SVG 20010904//EN"
 "http://www.w3.org/TR/2001/REC-SVG-20010904/DTD/svg10.dtd">
<svg version="1.0" xmlns="http://www.w3.org/2000/svg"
 width="177.000000pt" height="335.000000pt" viewBox="0 0 177.000000 335.000000"
 preserveAspectRatio="xMidYMid meet">

<g transform="translate(0.000000,335.000000) scale(0.100000,-0.100000)"
fill="#000000" stroke="none">
<path d="M240 1861 c0 -335 3 -616 6 -625 5 -14 36 -16 245 -16 l239 0 70 -35
c38 -19 80 -35 92 -35 13 0 48 16 78 35 l54 35 252 0 c220 0 253 2 258 16 3 9
6 290 6 625 l0 609 -650 0 -650 0 0 -609z"/>
<path d="M868 1049 c-36 -20 -13 -79 31 -79 14 0 41 29 41 45 0 17 -27 45 -43
45 -7 0 -20 -5 -29 -11z"/>
<path d="M1160 970 c0 -135 20 -160 125 -160 105 0 125 25 125 160 l0 90 -125
0 -125 0 0 -90z"/>
<path d="M868 899 c-36 -20 -13 -79 31 -79 14 0 41 29 41 45 0 17 -27 45 -43
45 -7 0 -20 -5 -29 -11z"/>
<path d="M868 749 c-36 -20 -13 -79 31 -79 14 0 41 29 41 45 0 17 -27 45 -43
45 -7 0 -20 -5 -29 -11z"/>
<path d="M407 464 c-4 -4 -7 -110 -7 -236 l0 -228 100 0 100 0 -2 233 -3 232
-90 3 c-50 1 -94 0 -98 -4z"/>
<path d="M797 463 c-4 -3 -7 -109 -7 -235 l0 -228 100 0 100 0 0 229 c0 199
-2 230 -16 235 -21 8 -169 8 -177 -1z"/>
<path d="M1183 463 c-10 -3 -13 -60 -13 -234 l0 -229 105 0 105 0 0 229 c0
199 -2 230 -16 235 -19 7 -163 7 -181 -1z"/>
</g>
</svg>
