<svg id="bbqSquid" xmlns="http://www.w3.org/2000/svg" width="247" height="252" viewBox="0 0 247 252">
  <defs>
    <style>
      .cls-1 {
        fill: #615667;
      }

      .cls-2 {
        fill: #ff8282;
      }

      .cls-2, .cls-3, .cls-6 {
        fill-rule: evenodd;
      }

      .cls-3, .cls-5 {
        fill: #fff;
      }

      .cls-4 {
        fill: #606060;
      }

      .cls-6 {
        fill: #b93434;
      }
    </style>
  </defs>
  <rect id="矩形_3_拷貝_18" data-name="矩形 3 拷貝 18" class="cls-1" y="46" width="247" height="6" rx="1.402" ry="1.402"/>
  <rect id="矩形_3_拷貝_19" data-name="矩形 3 拷貝 19" class="cls-1" x="230" y="46" width="7" height="206" rx="1.402" ry="1.402"/>
  <rect id="矩形_3_拷貝_20" data-name="矩形 3 拷貝 20" class="cls-1" x="13" y="46" width="7" height="206" rx="1.402" ry="1.402"/>
  <path id="矩形_2_拷貝_25" data-name="矩形 2 拷貝 25" class="cls-2" d="M214.134,70.172h85.95a10.244,10.244,0,0,1,10.244,10.244V125.8a10.243,10.243,0,0,1-10.244,10.244h-85.95A10.243,10.243,0,0,1,203.891,125.8V80.416A10.243,10.243,0,0,1,214.134,70.172Z" transform="translate(-124 -56)"/>
  <path id="多邊形_1_拷貝_33" data-name="多邊形 1 拷貝 33" class="cls-2" d="M314.532,139.989q-44.985,36-44.984-36t44.984-36Q359.514,103.994,314.532,139.989Z" transform="translate(-124 -56)"/>
  <path id="矩形_3_拷貝_17" data-name="矩形 3 拷貝 17" class="cls-2" d="M180.417,82.609h46.916a1.4,1.4,0,0,1,1.4,1.4v6.228a1.4,1.4,0,0,1-1.4,1.4H180.417a1.4,1.4,0,0,1-1.4-1.4V84.011A1.4,1.4,0,0,1,180.417,82.609Z" transform="translate(-124 -56)"/>
  <path id="矩形_3_拷貝_17-2" data-name="矩形 3 拷貝 17" class="cls-2" d="M180.417,99.484h46.916a1.4,1.4,0,0,1,1.4,1.4v6.2a1.4,1.4,0,0,1-1.4,1.4H180.417a1.4,1.4,0,0,1-1.4-1.4v-6.2A1.4,1.4,0,0,1,180.417,99.484Z" transform="translate(-124 -56)"/>
  <path id="矩形_3_拷貝_17-3" data-name="矩形 3 拷貝 17" class="cls-2" d="M180.417,116.391h46.916a1.4,1.4,0,0,1,1.4,1.4v6.072a1.4,1.4,0,0,1-1.4,1.4H180.417a1.4,1.4,0,0,1-1.4-1.4v-6.072A1.4,1.4,0,0,1,180.417,116.391Z" transform="translate(-124 -56)"/>
  <path id="橢圓_2_拷貝_28" data-name="橢圓 2 拷貝 28" class="cls-3" d="M255.328,81.609A5.391,5.391,0,1,1,250.016,87,5.352,5.352,0,0,1,255.328,81.609Z" transform="translate(-124 -56)"/>
  <circle id="橢圓_2_拷貝_28-2" data-name="橢圓 2 拷貝 28" class="cls-4" cx="132.219" cy="32.844" r="3.969"/>
  <circle id="橢圓_2_拷貝_28-3" data-name="橢圓 2 拷貝 28" class="cls-5" cx="131.344" cy="59.438" r="5.313"/>
  <circle id="橢圓_2_拷貝_28-4" data-name="橢圓 2 拷貝 28" class="cls-4" cx="132.219" cy="62.062" r="3.969"/>
  <path id="橢圓_3_拷貝_25" data-name="橢圓 3 拷貝 25" class="cls-6" d="M229.563,92.391c3.425,0,6.2,4.351,6.2,9.718s-2.778,9.719-6.2,9.719-6.2-4.351-6.2-9.719S226.137,92.391,229.563,92.391Z" transform="translate(-124 -56)"/>
</svg>
