<svg id="Capa_1" data-name="Capa 1" xmlns="http://www.w3.org/2000/svg" viewBox="0 0 532.81 756.13"><defs><style>.cls-1{fill:#e72968;}.cls-2{fill:#eb70a5;}</style></defs><title>桿子</title><path class="cls-1" d="M1903.85,1839.29,1653.2,1096.17a14.37,14.37,0,0,0-27.24,9.19l247.55,733.93Z" transform="translate(-1371.04 -1086.39)"/><path class="cls-2" d="M1878.51,1839.29,1627,1093.77a14.34,14.34,0,0,0-1.08,11.59l247.55,733.93Z" transform="translate(-1371.04 -1086.39)"/><path class="cls-1" d="M1641,1087.15a14.38,14.38,0,0,0-18.21,9L1371,1842.52h30.34L1650,1105.36A14.37,14.37,0,0,0,1641,1087.15Z" transform="translate(-1371.04 -1086.39)"/><path class="cls-2" d="M1648.93,1093.77l-252.55,748.75h5L1650,1105.36A14.26,14.26,0,0,0,1648.93,1093.77Z" transform="translate(-1371.04 -1086.39)"/></svg>