<?xml version="1.0" encoding="utf-8"?>
<!-- Generator: Adobe Illustrator 23.0.3, SVG Export Plug-In . SVG Version: 6.00 Build 0)  -->
<svg version="1.1" id="Capa_1" xmlns="http://www.w3.org/2000/svg" xmlns:xlink="http://www.w3.org/1999/xlink" x="0px" y="0px"
	 viewBox="0 0 992.1 992.1" style="enable-background:new 0 0 992.1 992.1;" xml:space="preserve">
<style type="text/css">
	.st0{fill:none;stroke:#F8B337;stroke-width:8.62;stroke-miterlimit:10;}
	.st1{fill:#22BBEC;}
	.st2{fill:none;stroke:#22BBEC;stroke-width:8.62;stroke-miterlimit:10;}
	.st3{fill:#E72968;}
	.st4{fill:#F8B337;}
</style>
<title>51507 [轉換]</title>
<g>
	<polygon class="st0" points="344.4,210 496,80.3 651.1,211.9 859,293.5 819.6,496 859,699.4 649.8,780.8 496,911.7 341.4,782.2 
		133.4,699.2 172.4,496 133.4,292.8 	"/>
	<polygon class="st0" points="498.2,172.2 693.2,130 781,336.1 911.6,496 780.9,649.4 719.1,847.2 496.4,819.6 298.9,861.8 
		224.2,674.6 80.4,496 211.2,342.4 296.7,131 	"/>
	<path class="st1" d="M496,88.4c225.1,0,407.6,182.5,407.6,407.6S721.1,903.6,496,903.6S88.4,721.1,88.4,496S270.9,88.4,496,88.4
		 M496,70.9c-84.7-0.1-167.5,25.2-237.6,72.6c-68.3,46.1-121.8,111.1-154,187c-56,132.4-41.3,284.1,39.2,403.2
		c46.1,68.3,111.1,121.8,187,154c132.3,56,284,41.3,403.1-39.2c68.3-46.1,121.8-111.1,154-187c56-132.4,41.3-284.1-39.2-403.2
		c-46.1-68.3-111.1-121.8-187-154C609.2,82.2,552.9,70.8,496,70.9L496,70.9z"/>
	<path class="st1" d="M496,178.6c175.3,0,317.3,142,317.3,317.4S671.3,813.3,496,813.3S178.6,671.3,178.6,496S320.7,178.6,496,178.6
		 M496,165c-65.9-0.1-130.4,19.6-185,56.5C257.7,257.5,216.1,308,191,367.2C147.5,470.2,159,588.3,221.6,681
		c35.9,53.2,86.5,94.9,145.6,119.9c103,43.6,221.2,32.1,313.9-30.5c53.2-35.9,94.8-86.5,119.9-145.6
		c43.6-103.1,32.1-221.2-30.5-313.9c-35.9-53.2-86.5-94.8-145.6-119.9C584.1,173.8,540.3,164.9,496,165L496,165z"/>
	<path class="st1" d="M496,283c117.6,0,213,95.3,213,213.1s-95.3,213.1-213,213.1S283,613.8,283,496S378.3,283,496,283 M496,273.8
		c-44.3-0.1-87.5,13.1-124.2,37.9c-35.7,24.1-63.7,58.1-80.5,97.7c-29.3,69.2-21.6,148.4,20.5,210.7c24.1,35.7,58,63.7,97.7,80.5
		c55.3,23.3,117.6,23.3,172.9,0c113-47.9,165.9-178.3,118-291.4c-22.5-53.2-64.8-95.5-118-118C555.1,279.7,525.7,273.8,496,273.8z"
		/>
</g>
<g>
	<line class="st2" x1="846.8" y1="145.3" x2="145.3" y2="846.8"/>
	<line class="st2" x1="992.1" y1="495.5" x2="0" y2="495.5"/>
	<line class="st2" x1="846.8" y1="846.2" x2="145.3" y2="144.7"/>
	<line class="st2" x1="496.1" y1="0" x2="496.1" y2="992.1"/>
</g>
<g>
	<path class="st3" d="M606.9,496c0,61.2-49.6,110.8-110.8,110.9c-61.2,0-110.8-49.6-110.9-110.8c0-61.2,49.6-110.8,110.8-110.9
		c0,0,0,0,0,0C557.3,385.2,606.9,434.8,606.9,496z"/>
	<path class="st4" d="M570,496c0,40.8-33.1,73.9-73.9,73.9c-40.8,0-73.9-33.1-73.9-73.9c0-40.8,33.1-73.9,73.9-73.9
		C536.9,422.1,570,455.2,570,496C570,496,570,496,570,496z"/>
	<path class="st3" d="M545,496c0,27.1-21.9,49-49,49s-49-21.9-49-49s21.9-49,49-49l0,0C523.1,447,545,469,545,496z"/>
</g>
</svg>
