<svg id="阿尤2" xmlns="http://www.w3.org/2000/svg" width="98" height="164" viewBox="0 0 98 164">
  <metadata><?xpacket begin="﻿" id="W5M0MpCehiHzreSzNTczkc9d"?>
<x:xmpmeta xmlns:x="adobe:ns:meta/" x:xmptk="Adobe XMP Core 5.6-c138 79.159824, 2016/09/14-01:09:01        ">
   <rdf:RDF xmlns:rdf="http://www.w3.org/1999/02/22-rdf-syntax-ns#">
      <rdf:Description rdf:about=""/>
   </rdf:RDF>
</x:xmpmeta>
                                                                                                    
                                                                                                    
                                                                                                    
                                                                                                    
                                                                                                    
                                                                                                    
                                                                                                    
                                                                                                    
                                                                                                    
                                                                                                    
                                                                                                    
                                                                                                    
                                                                                                    
                                                                                                    
                                                                                                    
                                                                                                    
                                                                                                    
                                                                                                    
                                                                                                    
                                                                                                    
                           
<?xpacket end="w"?></metadata>
<defs>
    <style>
      .cls-1 {
        fill: #ff8d8d;
      }

      .cls-1, .cls-3, .cls-4, .cls-5, .cls-6 {
        fill-rule: evenodd;
      }

      .cls-2, .cls-6 {
        fill: #4b4b4b;
      }

      .cls-3 {
        fill: #f3f3f3;
      }

      .cls-4 {
        fill: #5d8bae;
      }

      .cls-5 {
        fill: #58c7cb;
      }
    </style>
  </defs>
  <path id="矩形_2_拷貝_24" data-name="矩形 2 拷貝 24" class="cls-1" d="M968.553,772.673h37.107a15,15,0,0,1,15,15V868.2a15,15,0,0,1-15,15H968.553a15,15,0,0,1-15-15v-80.53A15,15,0,0,1,968.553,772.673Z" transform="translate(-939 -745)"/>
  <path id="多邊形_1_拷貝_24" data-name="多邊形 1 拷貝 24" class="cls-1" d="M1024.75,768.342q36.735,46.7-36.75,46.7t-36.747-46.7Q988,721.647,1024.75,768.342Z" transform="translate(-939 -745)"/>
  <path id="矩形_3_拷貝_28" data-name="矩形 3 拷貝 28" class="cls-1" d="M970.807,857.407a4.588,4.588,0,0,1,4.588,4.587v42.418a4.588,4.588,0,0,1-9.176,0V861.994A4.588,4.588,0,0,1,970.807,857.407Z" transform="translate(-939 -745)"/>
  <path id="矩形_3_拷貝_29" data-name="矩形 3 拷貝 29" class="cls-1" d="M988.006,857.407a4.588,4.588,0,0,1,4.588,4.587v42.418a4.588,4.588,0,1,1-9.176,0V861.994A4.588,4.588,0,0,1,988.006,857.407Z" transform="translate(-939 -745)"/>
  <path id="矩形_3_拷貝_30" data-name="矩形 3 拷貝 30" class="cls-1" d="M1005.19,857.407a4.586,4.586,0,0,1,4.59,4.587v42.418a4.585,4.585,0,1,1-9.17,0V861.994A4.583,4.583,0,0,1,1005.19,857.407Z" transform="translate(-939 -745)"/>
  <circle id="橢圓_2_拷貝_20" data-name="橢圓 2 拷貝 20" class="cls-2" cx="32.672" cy="77.657" r="5.453"/>
  <circle id="橢圓_2_拷貝_21" data-name="橢圓 2 拷貝 21" class="cls-2" cx="61.705" cy="77.657" r="5.455"/>
  <path id="矩形_44_拷貝_2" data-name="矩形 44 拷貝 2" class="cls-3" d="M953.278,843.967h23.889c3.328,0,6.657,4.018,10.125,4.018,2.866,0,5.871-4.018,8.653-4.018h25.365v32.141a7.979,7.979,0,0,1-7.91,8.035H961.189a7.974,7.974,0,0,1-7.911-8.035V843.967Z" transform="translate(-939 -745)"/>
  <path id="橢圓_15_拷貝_3" data-name="橢圓 15 拷貝 3" class="cls-4" d="M988.386,852.748a2.385,2.385,0,1,1-2.346,2.384A2.365,2.365,0,0,1,988.386,852.748Z" transform="translate(-939 -745)"/>
  <path id="橢圓_15_拷貝_4" data-name="橢圓 15 拷貝 4" class="cls-4" d="M988.386,860.656a2.385,2.385,0,1,1-2.346,2.385A2.366,2.366,0,0,1,988.386,860.656Z" transform="translate(-939 -745)"/>
  <path id="矩形_45_拷貝_4" data-name="矩形 45 拷貝 4" class="cls-5" d="M1000.96,852.748h13.3v6.835a6.65,6.65,0,1,1-13.3,0v-6.835Z" transform="translate(-939 -745)"/>
  <path id="橢圓_15_拷貝_5" data-name="橢圓 15 拷貝 5" class="cls-4" d="M988.386,868.613a2.373,2.373,0,1,1-2.346,2.372A2.36,2.36,0,0,1,988.386,868.613Z" transform="translate(-939 -745)"/>
  <path id="形狀_782_拷貝" data-name="形狀 782 拷貝" class="cls-6" d="M974.2,833.933V832.5s4.554,2.39,13.726,2.39c8.9,0,11.964-2.39,11.964-2.39v1.434s-2.9,2.391-11.712,2.391C978.93,836.324,974.2,833.933,974.2,833.933Z" transform="translate(-939 -745)"/>
</svg>
