<?xml version="1.0" encoding="utf-8"?>
<!-- Generator: Adobe Illustrator 23.0.3, SVG Export Plug-In . SVG Version: 6.00 Build 0)  -->
<svg version="1.1" id="Capa_1" xmlns="http://www.w3.org/2000/svg" xmlns:xlink="http://www.w3.org/1999/xlink" x="0px" y="0px"
	 viewBox="0 0 155.9 170.1" style="enable-background:new 0 0 155.9 170.1;" xml:space="preserve">
<style type="text/css">
	.st0{fill:#EA8C10;}
	.st1{fill:#3AAAE2;}
	.st2{fill:#A7DBF6;}
	.st3{fill:#FCC900;}
	.st4{fill:#FFFFFF;}
	.st5{fill:#ECB608;}
	.st6{fill:#EFF8FB;}
	.st7{fill:#FFEDAE;}
</style>
<title>黃車廂</title>
<rect x="4.9" y="77.6" class="st0" width="146" height="56.5"/>
<rect x="10.7" y="77.6" class="st1" width="134.5" height="51.8"/>
<polygon class="st2" points="34.2,129.4 49,129.4 10.7,88.4 10.7,104.2 "/>
<polygon class="st2" points="53.1,129.4 58.6,129.4 10.7,78.1 10.7,84 "/>
<polygon class="st2" points="145.2,113.1 112,77.6 108.9,77.6 102.7,83.5 145.2,128.9 "/>
<polygon class="st2" points="145.2,108.6 145.2,102.8 121.6,77.6 116.1,77.6 "/>
<rect x="40.3" y="77.6" class="st0" width="75.4" height="51.8"/>
<rect x="46.2" y="77.6" class="st1" width="63.4" height="51.8"/>
<polygon class="st2" points="46.2,78.3 46.2,89.2 83.8,129.4 98.6,129.4 50.1,77.6 47,77.6 "/>
<polygon class="st2" points="102.7,129.4 108.2,129.4 59.8,77.6 54.3,77.6 "/>
<path class="st3" d="M86.8,9c0,5-4,9-8.9,9s-8.9-4-8.9-9c0-5,4-9,8.9-9c0,0,0,0,0,0C82.8,0,86.8,4,86.8,9z"/>
<path class="st4" d="M77.6,6c-1.8,1.5-3.9,1.8-4.9,0.7c-0.9-1.1-0.2-3.2,1.6-4.6c1.8-1.5,3.9-1.8,4.9-0.7C80.1,2.5,79.4,4.5,77.6,6z
	"/>
<path class="st4" d="M72.5,8c0,0.6-0.4,1-1,1c-0.6,0-1-0.5-1-1c0-0.6,0.4-1,1-1C72.1,7,72.5,7.4,72.5,8z"/>
<polygon class="st5" points="151,75.9 4.9,75.9 72.8,18.6 83.1,18.6 "/>
<polygon class="st5" points="151,75.9 4.9,75.9 72.8,18.6 83.1,18.6 "/>
<polygon class="st6" points="119.3,75.9 36.6,75.9 72.8,18.6 83.1,18.6 "/>
<path class="st0" d="M155.9,78.1c0,1.2-1,2.2-2.2,2.2H2.2c-1.2,0-2.2-1-2.2-2.2l0,0l0,0c0-1.2,1-2.2,2.2-2.2h0h151.5
	C154.9,75.9,155.9,76.9,155.9,78.1z"/>
<path class="st3" d="M85.4,17.9c0,1-0.8,1.8-1.8,1.8H72.3c-1,0-1.8-0.8-1.8-1.8l0,0c0-1,0.8-1.8,1.8-1.8h11.3
	C84.6,16.1,85.4,16.9,85.4,17.9C85.4,17.9,85.4,17.9,85.4,17.9L85.4,17.9z"/>
<path class="st7" d="M84.4,16.8c0,0.2-0.1,0.3-0.3,0.3H72.1c-0.2,0-0.3-0.1-0.3-0.3l0,0c0-0.2,0.1-0.3,0.3-0.3H84
	C84.2,16.5,84.4,16.6,84.4,16.8z"/>
<rect x="4.9" y="134.1" class="st5" width="146" height="36"/>
<rect x="4.9" y="134.1" class="st5" width="146" height="36"/>
<path class="st0" d="M153.6,132.5c0,1.7-1.4,3.2-3.1,3.2H5.3c-1.7,0-3.1-1.4-3.1-3.2l0,0c0-1.7,1.4-3.2,3.1-3.2h145.2
	C152.2,129.4,153.6,130.8,153.6,132.5z"/>
<rect x="43.1" y="135.7" class="st0" width="69.3" height="34.4"/>
<rect x="47.3" y="135.7" class="st6" width="60.9" height="34.4"/>
</svg>
